#usda 1.0
(
    defaultPrim = "CargoBox"
    metersPerUnit = 1
    upAxis = "Z"
)

def Xform "CargoBox"
{
    def Mesh "Mesh"
    {
        uniform bool doubleSided = 1
        float3[] extent = [(-0.5, -0.5, -0.5), (0.5, 0.5, 0.5)]
        int[] faceVertexCounts = [3, 3, 3, 3, 3, 3, 3, 3, 3, 3, 3, 3, 3, 3, 3, 3, 3, 3, 3, 3, 3, 3, 3, 3, 3, 3, 3, 3, 3, 3, 3, 3, 3, 3, 3, 3, 3, 3, 3, 3, 3, 3, 3, 3, 3, 3, 3, 3, 3, 3, 3, 3, 3, 3, 3, 3, 3, 3, 3, 3, 3, 3, 3, 3, 3, 3, 3, 3, 3, 3, 3, 3, 3, 3, 3, 3]
        int[] faceVertexIndices = [0, 7, 2, 7, 3, 2, 0, 1, 8, 0, 8, 7, 1, 4, 9, 1, 9, 8, 4, 5, 10, 4, 10, 9, 5, 6, 11, 5, 11, 10, 6, 2, 3, 6, 3, 11, 12, 13, 20, 12, 20, 19, 13, 14, 21, 13, 21, 20, 14, 15, 22, 14, 22, 21, 15, 16, 23, 15, 23, 22, 16, 17, 24, 16, 24, 23, 17, 18, 25, 17, 25, 24, 18, 19, 20, 18, 20, 25, 26, 27, 34, 26, 34, 33, 27, 28, 35, 27, 35, 34, 28, 29, 36, 28, 36, 35, 29, 30, 37, 29, 37, 36, 30, 31, 38, 30, 38, 37, 31, 32, 39, 31, 39, 38, 32, 33, 34, 32, 34, 39, 40, 41, 48, 40, 48, 47, 41, 42, 49, 41, 49, 48, 42, 43, 50, 42, 50, 49, 43, 44, 51, 43, 51, 50, 44, 45, 52, 44, 52, 51, 45, 46, 53, 45, 53, 52, 46, 47, 48, 46, 48, 53, 54, 55, 62, 54, 62, 61, 55, 56, 63, 55, 63, 62, 56, 57, 64, 56, 64, 63, 57, 58, 65, 57, 65, 64, 58, 59, 66, 58, 66, 65, 59, 60, 67, 59, 67, 66, 60, 61, 62, 60, 62, 67, 68, 69, 76, 68, 76, 75, 69, 70, 77, 69, 77, 76, 70, 71, 78, 70, 78, 77, 71, 72, 79, 71, 79, 78, 72, 73, 80, 72, 80, 79, 73, 74, 81, 73, 81, 80, 74, 75, 76, 74, 76, 81, 82, 83, 90, 82, 90, 89, 83, 84, 91, 83, 91, 90, 84, 85, 92, 84, 92, 91, 85, 86, 93, 85, 93, 92, 86, 87, 94, 86, 94, 93, 87, 88, 95, 87, 95, 94, 88, 89, 90, 88, 90, 95, 96, 97, 104, 96, 104, 103, 97, 98, 105, 97, 105, 104, 98, 99, 106, 98, 106, 105, 99, 100, 107, 99, 107, 106, 100, 101, 108, 100, 108, 107, 101, 102, 109, 101, 109, 108, 102, 103, 104, 102, 104, 109, 110, 111, 118, 110, 118, 117, 111, 112, 119, 111, 119, 118, 112, 113, 114, 112, 114, 119, 113, 115, 116, 113, 116, 114, 115, 110, 117, 115, 117, 116]
        point3f[] points = [
            (-0.500000, 0.500000, -0.500000),
            (-0.500000, -0.500000, -0.500000),
            (-0.400000, 0.400000, -0.250000),
            (-0.400000, 0.500000, -0.250000),
            (-0.400000, -0.500000, -0.250000),
            (0.400000, -0.500000, -0.250000),
            (0.400000, 0.500000, -0.250000),
            (-0.500000, 0.500000, 0.500000),
            (-0.500000, -0.500000, 0.500000),
            (-0.400000, -0.500000, 0.500000),
            (0.400000, -0.500000, 0.500000),
            (0.400000, 0.500000, 0.500000),
            (-0.500000, -0.500000, -0.500000),
            (0.500000, -0.500000, -0.500000),
            (0.400000, -0.400000, -0.250000),
            (-0.400000, -0.400000, -0.250000),
            (-0.400000, -0.400000, 0.450000),
            (0.400000, -0.400000, 0.450000),
            (0.500000, -0.500000, 0.500000),
            (-0.500000, -0.500000, 0.500000),
            (0.400000, -0.500000, 0.500000),
            (0.400000, -0.400000, 0.500000),
            (-0.400000, -0.400000, 0.500000),
            (-0.400000, -0.500000, 0.500000),
            (-0.500000, -0.500000, 0.500000),
            (0.500000, -0.500000, 0.500000),
            (0.500000, -0.500000, -0.500000),
            (0.500000, 0.500000, -0.500000),
            (0.400000, 0.400000, -0.250000),
            (0.400000, -0.400000, -0.250000),
            (0.400000, -0.400000, 0.450000),
            (0.400000, 0.400000, 0.450000),
            (0.500000, 0.500000, 0.500000),
            (0.500000, -0.500000, 0.500000),
            (0.400000, -0.400000, 0.500000),
            (0.400000, 0.400000, 0.500000),
            (0.400000, 0.500000, 0.500000),
            (0.500000, 0.500000, 0.500000),
            (0.500000, -0.500000, 0.500000),
            (0.400000, -0.500000, 0.500000),
            (0.500000, 0.500000, -0.500000),
            (-0.500000, 0.500000, -0.500000),
            (-0.400000, 0.400000, -0.250000),
            (0.400000, 0.400000, -0.250000),
            (0.400000, 0.400000, 0.450000),
            (-0.400000, 0.400000, 0.450000),
            (-0.500000, 0.500000, 0.500000),
            (0.500000, 0.500000, 0.500000),
            (0.400000, 0.500000, 0.500000),
            (0.400000, 0.400000, 0.500000),
            (-0.400000, 0.400000, 0.500000),
            (-0.400000, 0.500000, 0.500000),
            (-0.500000, 0.500000, 0.500000),
            (0.500000, 0.500000, 0.500000),
            (-0.500000, 0.500000, -0.500000),
            (-0.500000, -0.500000, -0.500000),
            (-0.400000, -0.400000, -0.250000),
            (-0.400000, 0.400000, -0.250000),
            (-0.400000, 0.400000, 0.450000),
            (-0.400000, -0.400000, 0.450000),
            (-0.500000, -0.500000, 0.500000),
            (-0.500000, 0.500000, 0.500000),
            (-0.400000, 0.500000, 0.500000),
            (-0.400000, 0.400000, 0.500000),
            (-0.400000, -0.400000, 0.500000),
            (-0.400000, -0.500000, 0.500000),
            (-0.500000, -0.500000, 0.500000),
            (-0.500000, 0.500000, 0.500000),
            (-0.400000, 0.400000, -0.250000),
            (-0.400000, -0.400000, -0.250000),
            (0.400000, -0.400000, -0.250000),
            (0.400000, 0.400000, -0.250000),
            (0.400000, 0.400000, 0.450000),
            (0.400000, -0.400000, 0.450000),
            (-0.400000, -0.400000, 0.450000),
            (-0.400000, 0.400000, 0.450000),
            (-0.400000, 0.400000, 0.500000),
            (-0.400000, -0.400000, 0.500000),
            (0.400000, -0.400000, 0.500000),
            (0.400000, 0.400000, 0.500000),
            (-0.400000, 0.400000, 0.500000),
            (0.400000, 0.400000, 0.500000),
            (-0.500000, -0.500000, -0.500000),
            (-0.400000, -0.400000, -0.250000),
            (0.400000, -0.400000, -0.250000),
            (0.500000, -0.500000, -0.500000),
            (0.500000, 0.500000, -0.500000),
            (0.400000, 0.400000, -0.250000),
            (-0.400000, 0.400000, -0.250000),
            (-0.500000, 0.500000, -0.500000),
            (-0.400000, -0.500000, -0.250000),
            (0.400000, -0.500000, -0.250000),
            (0.400000, -0.400000, -0.250000),
            (-0.400000, -0.400000, -0.250000),
            (-0.400000, -0.400000, 0.450000),
            (0.400000, -0.400000, 0.450000),
            (0.400000, -0.500000, 0.500000),
            (-0.400000, -0.500000, 0.500000),
            (0.400000, 0.400000, 0.450000),
            (0.400000, -0.400000, 0.450000),
            (-0.400000, -0.400000, 0.450000),
            (-0.400000, 0.400000, 0.450000),
            (-0.400000, 0.400000, 0.500000),
            (-0.400000, -0.400000, 0.500000),
            (0.400000, -0.400000, 0.500000),
            (0.400000, 0.400000, 0.500000),
            (-0.400000, 0.500000, -0.250000),
            (-0.400000, 0.400000, -0.250000),
            (0.400000, 0.400000, -0.250000),
            (0.400000, 0.500000, -0.250000),
            (0.400000, 0.500000, 0.500000),
            (-0.400000, 0.500000, 0.500000),
            (0.400000, -0.500000, -0.250000),
            (0.400000, -0.400000, -0.250000),
            (0.400000, 0.400000, -0.250000),
            (0.400000, 0.500000, -0.250000),
            (0.400000, 0.500000, 0.500000),
            (0.400000, -0.500000, 0.500000)
        ]
        color3f[] primvars:displayColor = [(0.25, 0.32, 0.38)] (
            interpolation = "constant"
        )
        uniform token subdivisionScheme = "none"
    }
}
